PathFileType	4	(X/Y/Z)	C:/Users/beibeiliu/ov580/test_trc/capture2\sequence.2_training_dense_left.trc
DataRate	CameraRate	NumFrames	NumMarkers	Units	OrigDataRate	OrigDataStartFrame	OrigNumFrames
120	120	13	19	mm	120	274	313
Frame#	Time	ThumbCMC			ThumbMCP			ThumbIP			ThumbTip			IndexMCP			IndexPIP			IndexTip			MiddleMCP			MiddlePIP			MiddleTip			RingMCP			RingPIP			RingTip			PinkyMCP			PinkyPIP			PinkyTip			BackHand1			BackHand2			BackHand3	
		X0	Y0	Z0	X1	Y1	Z1	X2	Y2	Z2	X3	Y3	Z3	X4	Y4	Z4	X5	Y5	Z5	X6	Y6	Z6	X7	Y7	Z7	X8	Y8	Z8	X9	Y9	Z9	X10	Y10	Z10	X11	Y11	Z11	X12	Y12	Z12	X13	Y13	Z13	X14	Y14	Z14	X15	Y15	Z15	X16	Y16	Z16	X17	Y17	Z17	X18	Y18	Z18	
273	2.275	-205.611	84.7431	-45.8813	-185.973	107.727	-54.9122	-169.655	121.444	-76.1749	-152.577	124.863	-90.7823	-183.845	77.9586	-113.678	-162.601	99.4695	-126.001	-152.859	119.544	-100.302	-161.591	69.908	-114.336	-139.38	92.9949	-117.877	-140.892	113.547	-86.5982	-143.006	60.8407	-107.425	-129.653	86.4311	-108.229	-133.628	105.438	-76.065	-136.497	49.9525	-89.908	-116.627	75.4159	-96.9044	-117.802	101.058	-84.7821	-174.512	30.1552	-64.9016	-187.408	25.5072	-38.1534	-202.451	46.2596	-58.8838	
274	2.28333	-208.335	82.5153	-45.0113	-192.731	109.921	-57.8312	-178.237	124.96	-80.3946	-160.046	125.804	-96.8796	-188.249	75.2722	-115.387	-170.325	97.1556	-127.219	-160.53	115.821	-99.3694	-170.925	68.4675	-118.516	-152.615	96.2276	-122.28	-148.73	112.52	-91.2226	-151.784	58.9206	-110.433	-135.619	84.5565	-112.164	-138.222	103.244	-83.3363	-140.324	49.0023	-96.532	-124.896	73.2474	-102.684	-123.692	102.17	-89.0677	-180.964	32.9191	-68.4945	-190.114	26.9245	-42.9312	-210.325	44.9955	-57.4423	
275	2.29167	-215.236	83.6869	-46.5156	-198.374	108.323	-61.0542	-185.494	121.654	-84.7395	-165.358	120.169	-105.316	-200.882	73.8376	-118.266	-180.664	99.0947	-128.617	-169.96	113.747	-101.632	-178.557	66.1926	-121.512	-162.141	94.1286	-124.746	-154.241	105.591	-91.8632	-164.935	56.1935	-112.72	-144.96	82.4604	-116.913	-147.999	102.226	-86.6584	-151.975	47.187	-99.7114	-136.582	70.6878	-109.739	-133.265	99.1037	-94.7419	-183.423	29.0537	-68.9757	-192.173	22.4248	-42.7804	-215.161	45.2316	-59.7228	
276	2.3	-216.135	78.4508	-45.1144	-202.659	104.92	-64.2281	-192.131	115.76	-85.2198	-175.449	114.863	-107.565	-208.014	71.3861	-121.677	-190.92	90.1192	-133.185	-177.839	107.653	-107.58	-187.976	61.4831	-124.335	-170.425	87.479	-128.985	-163.21	104.076	-95.4044	-169.594	50.9553	-115.847	-152.679	76.2502	-122.426	-153.237	97.9458	-96.4004	-156.776	43.8426	-106.499	-141.823	64.3862	-115.84	-138.628	94.8864	-102.982	-191.096	25.7864	-70.2085	-195.333	22.3998	-42.47	-220.536	41.473	-57.5838	
277	2.30833	-219.744	77.5932	-44.1455	-205.222	99.065	-66.012	-196.054	111.502	-89.1206	-181.958	111.469	-110.42	-214.215	66.0216	-121.989	-198.074	88.4734	-133.206	-185.176	105.321	-106.613	-195.537	54.0977	-123.153	-177.833	78.3884	-133.412	-167.955	98.2384	-99.1924	-180.085	46.4242	-119.463	-159.797	68.8783	-127.351	-160.885	93.3962	-100.98	-164.248	37.2687	-107.004	-154.164	61.2674	-120.565	-143.625	89.2964	-110.89	-192.339	21.3073	-69.6372	-198.44	20.0248	-40.1539	-220.384	38.6755	-58.8377	
278	2.31667	-222.215	75.2076	-44.7787	-209.749	100.063	-68.1485	-201.669	110.028	-92.9666	-187.081	108.96	-116.318	-221.738	61.686	-122.487	-203.197	82.7514	-134.223	-188.215	100.01	-110.83	-204.229	50.227	-125.203	-183.301	73.9269	-135.866	-171.82	91.806	-105.827	-183.606	38.59	-119.777	-165.623	64.2269	-129.335	-161.27	86.527	-106.477	-167.629	28.9762	-108.005	-159.479	55.3169	-123.877	-152.347	80.3927	-115.998	-195.655	17.3008	-69.7508	-202.6	15.8721	-39.1307	-225.798	36.7875	-58.2601	
279	2.325	-224.484	72.5561	-47.6485	-208.738	91.1849	-69.3313	-203.704	107.024	-95.9166	-190.506	103.383	-117.852	-225.638	55.1211	-122.916	-210.651	76.5279	-136.46	-191.325	92.9812	-111.918	-207.237	43.5857	-127.493	-188.407	66.6566	-137.248	-174.881	85.5911	-109.573	-189.813	32.5381	-122.59	-171.679	57.981	-131.776	-167.88	79.6029	-107.928	-173.898	23.7348	-109.996	-161.883	41.9536	-126.086	-151.954	71.538	-118.434	-205.629	14.9474	-72.3246	-204.023	9.74717	-40.7824	-229.951	30.6175	-53.8269	
280	2.33333	-226.751	68.2429	-46.2886	-212.396	88.4641	-71.3959	-205.473	95.012	-96.9272	-195.421	97.0866	-118.091	-232.169	48.718	-119.673	-213.577	65.332	-137.793	-195.258	84.3753	-118.648	-217.818	38.9218	-125.941	-197.916	56.769	-139.888	-181.842	80.3368	-113.21	-198.994	24.1096	-120.26	-181.201	51.4391	-133.817	-170.195	70.7441	-109.011	-182.357	15.5165	-111.02	-168.284	35.8349	-128.254	-159.047	63.7744	-121.615	-210.361	7.36822	-70.3565	-207.446	4.72692	-37.0601	-231.981	25.955	-52.4498	
281	2.34167	-226.771	61.5768	-49.0593	-215.004	84.056	-74.351	-208.031	90.9094	-96.1883	-198.331	84.7694	-119.946	-237.378	43.5265	-118.588	-219.713	63.629	-138.505	-199.47	78.7968	-117.426	-223.696	32.4676	-127.965	-201.543	52.9357	-139.262	-183.448	68.376	-115.325	-207.001	19.783	-124.238	-186.729	39.1373	-136.046	-179.037	64.0207	-111.777	-188.735	5.83012	-109.976	-179.221	28.8836	-130.513	-165.313	56.3027	-122.385	-216.022	3.88493	-70.5644	-213.136	1.8187	-38.3163	-236.096	23.5951	-53.0057	
282	2.35	-230.582	61.8737	-51.7509	-214.301	76.6255	-72.7922	-209.688	86.9681	-98.1715	-200.126	79.4226	-125.934	-244.995	40.936	-121.391	-227.896	56.7197	-138.608	-203.086	71.7883	-117.721	-228.097	24.9989	-127.503	-210.085	46.1205	-141.401	-188.983	61.0018	-118.863	-216.81	13.669	-124.345	-196.769	33.5267	-137.294	-179.671	53.1048	-112.29	-201.678	1.13251	-113.308	-185.49	18.6156	-132.96	-173.822	45.6609	-125.141	-226.114	-1.52426	-69.298	-217.418	-2.87623	-38.3447	-245.24	22.6866	-52.3754	
283	2.35833	-228.776	55.9911	-49.7111	-214.039	70.4595	-78.5963	-209.128	76.7378	-102.45	-203.239	71.6251	-126.812	-251.045	37.1945	-116.145	-233.92	48.6511	-138.676	-206.05	62.6785	-120.56	-238.162	22.2768	-125.468	-216.313	35.2937	-141.435	-192.157	51.6143	-120.17	-223.609	4.35154	-121.645	-202.053	22.4821	-137.745	-186.371	42.4529	-115.477	-210.166	-7.49324	-112.123	-194.757	5.69273	-132.281	-180.568	33.2507	-128.367	-230.221	-7.97484	-65.4633	-227.245	-1.64754	-35.9484	-249.403	22.0486	-50.8429	
284	2.36667	-227.756	50.9257	-48.5165	-213.06	64.3205	-75.6698	-210.119	70.4546	-102.632	-206.631	58.1243	-127.307	-255.348	31.8731	-112.509	-233.131	42.9227	-137.762	-209.848	56.2894	-120.635	-245.438	15.9322	-120.717	-224.856	28.0514	-141.75	-198.069	44.3925	-120.593	-232.764	0.943125	-119.949	-212.128	13.6755	-137.953	-193.625	34.2031	-117.691	-221.856	-11.8317	-111.04	-206.946	-3.14977	-131.484	-184.765	24.7828	-123.569	-238.516	-7.45487	-65.397	-230.682	-10.5722	-32.033	-251.955	21.5598	-47.5889	
285	2.375	-229.706	46.9806	-49.4677	-215.464	61.7547	-77.0084	-211.718	62.9153	-102.437	-209.332	58.7793	-128.226	-258.218	28.2451	-115.502	-239.954	42.0961	-137.473	-213.834	50.2269	-122.683	-249.706	10.5905	-122.673	-227.368	24.8696	-140.646	-201.875	38.0584	-120.128	-238.756	-5.79111	-116.038	-219.129	8.86176	-136.907	-196.054	24.864	-116.033	-227.971	-17.3475	-108.613	-210.006	-8.41572	-131.462	-191.886	15.1315	-125.286	-243.844	-12.5632	-61.1885	-235.336	-12.1882	-35.4236	-253.131	17.1709	-44.0989	
